<svg xmlns="http://www.w3.org/2000/svg" viewBox="0 0 120 120" width="120" height="120">
  <!-- Magnifying glass -->
  <circle cx="52" cy="52" r="28" fill="none" stroke="#dbb85c" stroke-width="4"/>
  <line x1="72" y1="72" x2="100" y2="100" stroke="#dbb85c" stroke-width="6" stroke-linecap="round"/>
  <!-- PFT text in viewfinder -->
  <text x="52" y="57" text-anchor="middle" font-family="monospace" font-size="14" font-weight="700" fill="#dbb85c">PFT</text>
  <!-- Subtle hexagon grid inside lens (hive pattern) -->
  <path d="M36,42 L40,38 L46,38 L50,42 L46,46 L40,46 Z" fill="none" stroke="#dbb85c" stroke-width="0.8" opacity="0.3"/>
  <path d="M50,42 L54,38 L60,38 L64,42 L60,46 L54,46 Z" fill="none" stroke="#dbb85c" stroke-width="0.8" opacity="0.3"/>
  <path d="M43,50 L47,46 L53,46 L57,50 L53,54 L47,54 Z" fill="none" stroke="#dbb85c" stroke-width="0.8" opacity="0.3"/>
  <path d="M36,58 L40,54 L46,54 L50,58 L46,62 L40,62 Z" fill="none" stroke="#dbb85c" stroke-width="0.8" opacity="0.3"/>
  <path d="M50,58 L54,54 L60,54 L64,58 L60,62 L54,62 Z" fill="none" stroke="#dbb85c" stroke-width="0.8" opacity="0.3"/>
</svg>
