<svg xmlns="http://www.w3.org/2000/svg" viewBox="0 0 120 120" width="120" height="120">
  <!-- Input arrow on left -->
  <line x1="8" y1="60" x2="28" y2="60" stroke="#5eea96" stroke-width="3" stroke-linecap="round"/>
  <polygon points="26,55 34,60 26,65" fill="#5eea96"/>
  <!-- Stylized S -->
  <path d="M40,35 C40,35 75,25 75,45 C75,55 40,55 40,65 C40,85 75,75 75,75"
        fill="none" stroke="#5eea96" stroke-width="5" stroke-linecap="round" stroke-linejoin="round"/>
  <!-- Three output arrows on right -->
  <line x1="82" y1="42" x2="102" y2="32" stroke="#5eea96" stroke-width="2.5" stroke-linecap="round"/>
  <polygon points="99,28 106,30 101,36" fill="#5eea96"/>
  <line x1="82" y1="58" x2="106" y2="58" stroke="#5eea96" stroke-width="2.5" stroke-linecap="round"/>
  <polygon points="103,53 110,58 103,63" fill="#5eea96"/>
  <line x1="82" y1="74" x2="102" y2="84" stroke="#5eea96" stroke-width="2.5" stroke-linecap="round"/>
  <polygon points="99,80 106,86 101,80" fill="#5eea96"/>
</svg>
